<?xml version="1.0" encoding="utf-8"?>
<!-- Generator: Adobe Illustrator 16.0.0, SVG Export Plug-In . SVG Version: 6.00 Build 0)  -->
<!DOCTYPE svg PUBLIC "-//W3C//DTD SVG 1.1//EN" "http://www.w3.org/Graphics/SVG/1.1/DTD/svg11.dtd">
<svg version="1.1" id="Layer_1" xmlns="http://www.w3.org/2000/svg" xmlns:xlink="http://www.w3.org/1999/xlink" x="0px" y="0px"
	 width="100px" height="100px" viewBox="0 0 100 100" enable-background="new 0 0 100 100" xml:space="preserve">
<g>
	<polygon points="60.166,42.267 100,0.057 100,0 90.215,0 57.987,39.364 	"/>
	<polygon points="63.475,46.676 100,15.317 100,6.047 61.559,44.123 	"/>
	<polygon points="66.163,50.257 100,27.302 100,20.139 64.921,48.603 	"/>
	<polygon points="68.292,53.097 100,37.484 100,31.818 67.317,51.798 	"/>
	<polygon points="53.395,33.242 56.692,37.637 59.988,33.297 60.008,33.292 85.606,0 78.965,0 64.689,18.415 	"/>
	<polygon points="59.385,22.609 45.503,0 38.046,0 56.704,26.057 	"/>
	<polygon points="63.819,16.907 55.727,0 49.34,0 61.071,20.441 	"/>
	<polygon points="68.225,11.241 64.371,0 59.307,0 65.737,14.44 	"/>
	<polygon points="72.836,5.31 71.791,0 67.834,0 70.271,8.61 	"/>
	<polygon points="55.236,28.074 33.888,0 27.153,0 52.243,32.052 	"/>
	<polygon points="45.192,44.138 79.681,100 90.361,100 47.767,40.825 	"/>
	<polygon points="40.898,49.659 64.958,100 74.354,100 43.529,46.275 	"/>
	<polygon points="36.696,55.063 52.053,100 60.401,100 39.04,52.049 	"/>
	<polygon points="32.405,60.583 40.164,100 46.792,100 34.782,57.523 	"/>
	<polygon points="48.931,39.332 95.371,100 100,100 100,97.534 52.076,35.254 	"/>
	<polygon points="44.104,24.161 0,70.813 0,83.605 46.353,27.044 	"/>
	<polygon points="40.686,19.78 0,54.766 0,64.989 42.689,22.348 	"/>
	<polygon points="37.857,16.154 0,41.721 0,49.747 39.196,17.87 	"/>
	<polygon points="35.632,13.301 0,30.875 0,36.69 36.724,14.701 	"/>
	<polygon points="47.682,28.748 44.653,32.736 44.635,32.742 0,90.69 0,99.166 51.143,33.183 	"/>
</g>
</svg>
